<svg width="28" height="28" viewBox="0 0 28 28" fill="none" xmlns="http://www.w3.org/2000/svg">
<path d="M13.9996 10.3551C11.9926 10.3551 10.3547 11.993 10.3547 14.0001C10.3547 16.0071 11.9926 17.645 13.9996 17.645C16.0067 17.645 17.6446 16.0071 17.6446 14.0001C17.6446 11.993 16.0067 10.3551 13.9996 10.3551ZM24.9317 14.0001C24.9317 12.4907 24.9454 10.995 24.8606 9.48834C24.7758 7.73834 24.3766 6.18521 23.0969 4.90552C21.8145 3.6231 20.2641 3.22662 18.5141 3.14185C17.0047 3.05709 15.509 3.07076 14.0024 3.07076C12.493 3.07076 10.9973 3.05709 9.49066 3.14185C7.74066 3.22662 6.18753 3.62584 4.90785 4.90552C3.62542 6.18795 3.22894 7.73834 3.14417 9.48834C3.05941 10.9977 3.07308 12.4934 3.07308 14.0001C3.07308 15.5067 3.05941 17.0051 3.14417 18.5118C3.22894 20.2618 3.62816 21.8149 4.90785 23.0946C6.19027 24.377 7.74066 24.7735 9.49066 24.8583C11 24.943 12.4957 24.9293 14.0024 24.9293C15.5118 24.9293 17.0075 24.943 18.5141 24.8583C20.2641 24.7735 21.8172 24.3743 23.0969 23.0946C24.3793 21.8122 24.7758 20.2618 24.8606 18.5118C24.9481 17.0051 24.9317 15.5094 24.9317 14.0001ZM13.9996 19.6083C10.8961 19.6083 8.39144 17.1036 8.39144 14.0001C8.39144 10.8965 10.8961 8.39185 13.9996 8.39185C17.1032 8.39185 19.6079 10.8965 19.6079 14.0001C19.6079 17.1036 17.1032 19.6083 13.9996 19.6083ZM19.8375 9.47193C19.1129 9.47193 18.5278 8.88677 18.5278 8.16216C18.5278 7.43756 19.1129 6.8524 19.8375 6.8524C20.5622 6.8524 21.1473 7.43756 21.1473 8.16216C21.1475 8.33423 21.1138 8.50464 21.048 8.66365C20.9823 8.82265 20.8858 8.96712 20.7642 9.08879C20.6425 9.21046 20.498 9.30692 20.339 9.37267C20.18 9.43842 20.0096 9.47215 19.8375 9.47193Z" fill="#277CA5"/>
</svg>
