<svg width="28" height="28" viewBox="0 0 28 28" fill="none" xmlns="http://www.w3.org/2000/svg">
<path d="M5.81439 8.39647C7.22418 8.39647 8.36705 7.2536 8.36705 5.8438C8.36705 4.43401 7.22418 3.29114 5.81439 3.29114C4.40459 3.29114 3.26172 4.43401 3.26172 5.8438C3.26172 7.2536 4.40459 8.39647 5.81439 8.39647Z" fill="#277CA5"/>
<path d="M10.777 10.3308V24.493H15.1742V17.4895C15.1742 15.6415 15.5218 13.8518 17.8132 13.8518C20.073 13.8518 20.101 15.9647 20.101 17.6062V24.4942H24.5005V16.7277C24.5005 12.9127 23.6792 9.98083 19.2202 9.98083C17.0793 9.98083 15.6443 11.1557 15.0575 12.2675H14.998V10.3308H10.777ZM3.61133 10.3308H8.01549V24.493H3.61133V10.3308Z" fill="#277CA5"/>
</svg>
