<svg width="172" height="23" viewBox="0 0 172 23" fill="none" xmlns="http://www.w3.org/2000/svg">
<path d="M6.13 0.699999L11.14 16.24L16.09 0.699999H21.28L13.54 22H8.71L0.91 0.699999H6.13ZM28.9148 22.3C27.5748 22.3 26.3848 22.09 25.3448 21.67C24.3048 21.23 23.4148 20.64 22.6748 19.9C21.9548 19.16 21.4048 18.31 21.0248 17.35C20.6448 16.37 20.4548 15.35 20.4548 14.29C20.4548 12.77 20.7848 11.39 21.4448 10.15C22.1248 8.89 23.0948 7.88 24.3548 7.12C25.6148 6.34 27.1348 5.95 28.9148 5.95C30.6948 5.95 32.2048 6.33 33.4448 7.09C34.7048 7.85 35.6648 8.85 36.3248 10.09C36.9848 11.31 37.3148 12.64 37.3148 14.08C37.3148 14.36 37.2948 14.64 37.2548 14.92C37.2348 15.18 37.2148 15.41 37.1948 15.61H25.5548C25.6148 16.31 25.8048 16.9 26.1248 17.38C26.4648 17.86 26.8948 18.23 27.4148 18.49C27.9348 18.73 28.4848 18.85 29.0648 18.85C29.7848 18.85 30.4548 18.68 31.0748 18.34C31.7148 18 32.1548 17.54 32.3948 16.96L36.4748 18.1C36.0748 18.92 35.5048 19.65 34.7648 20.29C34.0448 20.91 33.1848 21.4 32.1848 21.76C31.2048 22.12 30.1148 22.3 28.9148 22.3ZM25.4348 12.67H32.2748C32.1948 12.01 32.0048 11.44 31.7048 10.96C31.4048 10.46 31.0048 10.08 30.5048 9.82C30.0048 9.54 29.4548 9.4 28.8548 9.4C28.2348 9.4 27.6748 9.54 27.1748 9.82C26.6948 10.08 26.3048 10.46 26.0048 10.96C25.7048 11.44 25.5148 12.01 25.4348 12.67ZM55.2702 22H50.4702V13.15C50.4702 12.11 50.2702 11.36 49.8702 10.9C49.4902 10.42 48.9802 10.18 48.3402 10.18C47.9002 10.18 47.4502 10.3 46.9902 10.54C46.5302 10.78 46.1102 11.11 45.7302 11.53C45.3702 11.95 45.0902 12.43 44.8902 12.97V22H40.0902V6.25H44.4102V8.89C44.8102 8.27 45.3102 7.74 45.9102 7.3C46.5102 6.86 47.2002 6.53 47.9802 6.31C48.7602 6.07 49.6102 5.95 50.5302 5.95C51.5502 5.95 52.3702 6.14 52.9902 6.52C53.6302 6.88 54.1102 7.36 54.4302 7.96C54.7702 8.56 54.9902 9.21 55.0902 9.91C55.2102 10.59 55.2702 11.26 55.2702 11.92V22ZM58.1594 14.11C58.1594 12.57 58.4594 11.19 59.0594 9.97C59.6594 8.73 60.4794 7.75 61.5194 7.03C62.5594 6.31 63.7594 5.95 65.1194 5.95C66.2194 5.95 67.2194 6.22 68.1194 6.76C69.0194 7.28 69.6994 7.97 70.1594 8.83V0.0999994H74.9594V16.66C74.9594 17.14 75.0394 17.48 75.1994 17.68C75.3594 17.86 75.6194 17.97 75.9794 18.01V22C75.1394 22.16 74.4594 22.24 73.9394 22.24C73.1194 22.24 72.4494 22.06 71.9294 21.7C71.4294 21.34 71.1194 20.84 70.9994 20.2L70.9094 19.39C70.3494 20.37 69.5894 21.1 68.6294 21.58C67.6694 22.06 66.6594 22.3 65.5994 22.3C64.5194 22.3 63.5194 22.1 62.5994 21.7C61.6994 21.28 60.9094 20.7 60.2294 19.96C59.5694 19.22 59.0594 18.35 58.6994 17.35C58.3394 16.35 58.1594 15.27 58.1594 14.11ZM70.1894 16.06V12.76C69.9894 12.22 69.6994 11.75 69.3194 11.35C68.9594 10.95 68.5394 10.63 68.0594 10.39C67.5994 10.15 67.1294 10.03 66.6494 10.03C66.1294 10.03 65.6494 10.14 65.2094 10.36C64.7894 10.58 64.4194 10.89 64.0994 11.29C63.7794 11.67 63.5294 12.11 63.3494 12.61C63.1894 13.11 63.1094 13.64 63.1094 14.2C63.1094 14.78 63.1994 15.32 63.3794 15.82C63.5794 16.3 63.8494 16.73 64.1894 17.11C64.5294 17.47 64.9294 17.75 65.3894 17.95C65.8494 18.15 66.3494 18.25 66.8894 18.25C67.2294 18.25 67.5594 18.2 67.8794 18.1C68.1994 17.98 68.4994 17.83 68.7794 17.65C69.0794 17.47 69.3494 17.24 69.5894 16.96C69.8294 16.68 70.0294 16.38 70.1894 16.06ZM78.2983 17.29C78.2983 16.25 78.5883 15.34 79.1683 14.56C79.7483 13.78 80.5483 13.17 81.5683 12.73C82.5883 12.27 83.7583 12.04 85.0783 12.04C85.7183 12.04 86.3483 12.1 86.9683 12.22C87.5883 12.32 88.1283 12.47 88.5883 12.67V11.98C88.5883 11.12 88.3283 10.46 87.8083 10C87.2883 9.54 86.4983 9.31 85.4383 9.31C84.5583 9.31 83.7283 9.46 82.9483 9.76C82.1883 10.06 81.3783 10.49 80.5183 11.05L79.0783 7.99C80.1183 7.31 81.1983 6.8 82.3183 6.46C83.4583 6.12 84.6583 5.95 85.9183 5.95C88.2783 5.95 90.1083 6.52 91.4083 7.66C92.7283 8.78 93.3883 10.41 93.3883 12.55V16.66C93.3883 17.14 93.4583 17.48 93.5983 17.68C93.7583 17.86 94.0283 17.97 94.4083 18.01V22C94.0083 22.08 93.6283 22.14 93.2683 22.18C92.9283 22.22 92.6283 22.24 92.3683 22.24C91.4683 22.24 90.7783 22.06 90.2983 21.7C89.8383 21.34 89.5483 20.85 89.4283 20.23L89.3383 19.54C88.6383 20.44 87.7983 21.13 86.8183 21.61C85.8583 22.07 84.8483 22.3 83.7883 22.3C82.7483 22.3 81.8083 22.08 80.9683 21.64C80.1483 21.2 79.4983 20.6 79.0183 19.84C78.5383 19.08 78.2983 18.23 78.2983 17.29ZM87.8383 17.89C88.0583 17.71 88.2383 17.51 88.3783 17.29C88.5183 17.07 88.5883 16.86 88.5883 16.66V15.25C88.1883 15.09 87.7383 14.97 87.2383 14.89C86.7583 14.79 86.3083 14.74 85.8883 14.74C85.0083 14.74 84.2783 14.94 83.6983 15.34C83.1183 15.72 82.8283 16.23 82.8283 16.87C82.8283 17.23 82.9283 17.56 83.1283 17.86C83.3283 18.16 83.5983 18.4 83.9383 18.58C84.2983 18.76 84.7183 18.85 85.1983 18.85C85.6783 18.85 86.1583 18.76 86.6383 18.58C87.1183 18.4 87.5183 18.17 87.8383 17.89ZM100.931 22L95.3512 6.25H100.301L103.751 17.68L107.201 6.25H111.701L106.151 22H100.931ZM112.721 17.29C112.721 16.25 113.011 15.34 113.591 14.56C114.171 13.78 114.971 13.17 115.991 12.73C117.011 12.27 118.181 12.04 119.501 12.04C120.141 12.04 120.771 12.1 121.391 12.22C122.011 12.32 122.551 12.47 123.011 12.67V11.98C123.011 11.12 122.751 10.46 122.231 10C121.711 9.54 120.921 9.31 119.861 9.31C118.981 9.31 118.151 9.46 117.371 9.76C116.611 10.06 115.801 10.49 114.941 11.05L113.501 7.99C114.541 7.31 115.621 6.8 116.741 6.46C117.881 6.12 119.081 5.95 120.341 5.95C122.701 5.95 124.531 6.52 125.831 7.66C127.151 8.78 127.811 10.41 127.811 12.55V16.66C127.811 17.14 127.881 17.48 128.021 17.68C128.181 17.86 128.451 17.97 128.831 18.01V22C128.431 22.08 128.051 22.14 127.691 22.18C127.351 22.22 127.051 22.24 126.791 22.24C125.891 22.24 125.201 22.06 124.721 21.7C124.261 21.34 123.971 20.85 123.851 20.23L123.761 19.54C123.061 20.44 122.221 21.13 121.241 21.61C120.281 22.07 119.271 22.3 118.211 22.3C117.171 22.3 116.231 22.08 115.391 21.64C114.571 21.2 113.921 20.6 113.441 19.84C112.961 19.08 112.721 18.23 112.721 17.29ZM122.261 17.89C122.481 17.71 122.661 17.51 122.801 17.29C122.941 17.07 123.011 16.86 123.011 16.66V15.25C122.611 15.09 122.161 14.97 121.661 14.89C121.181 14.79 120.731 14.74 120.311 14.74C119.431 14.74 118.701 14.94 118.121 15.34C117.541 15.72 117.251 16.23 117.251 16.87C117.251 17.23 117.351 17.56 117.551 17.86C117.751 18.16 118.021 18.4 118.361 18.58C118.721 18.76 119.141 18.85 119.621 18.85C120.101 18.85 120.581 18.76 121.061 18.58C121.541 18.4 121.941 18.17 122.261 17.89ZM131.739 16.33V6.25H136.539V15.28C136.539 16.24 136.729 16.98 137.109 17.5C137.489 18 138.029 18.25 138.729 18.25C139.169 18.25 139.589 18.18 139.989 18.04C140.389 17.88 140.779 17.63 141.159 17.29C141.539 16.95 141.879 16.51 142.179 15.97V6.25H146.979V16.66C146.979 17.14 147.049 17.48 147.189 17.68C147.349 17.86 147.619 17.97 147.999 18.01V22C147.559 22.08 147.169 22.14 146.829 22.18C146.509 22.22 146.219 22.24 145.959 22.24C145.119 22.24 144.449 22.07 143.949 21.73C143.449 21.37 143.139 20.87 143.019 20.23L142.929 19.27C142.209 20.31 141.309 21.08 140.229 21.58C139.169 22.06 137.979 22.3 136.659 22.3C135.059 22.3 133.839 21.79 132.999 20.77C132.159 19.75 131.739 18.27 131.739 16.33ZM151.238 0.0999994H156.038V16.39C156.038 17.05 156.158 17.52 156.398 17.8C156.638 18.08 156.978 18.22 157.418 18.22C157.718 18.22 158.018 18.18 158.318 18.1C158.638 18 158.918 17.89 159.158 17.77L159.788 21.37C159.188 21.65 158.498 21.87 157.718 22.03C156.938 22.19 156.208 22.27 155.528 22.27C154.168 22.27 153.108 21.91 152.348 21.19C151.608 20.45 151.238 19.41 151.238 18.07V0.0999994ZM171.854 21.16C171.414 21.34 170.924 21.52 170.384 21.7C169.864 21.88 169.314 22.02 168.734 22.12C168.154 22.24 167.584 22.3 167.024 22.3C166.224 22.3 165.484 22.17 164.804 21.91C164.144 21.63 163.614 21.18 163.214 20.56C162.834 19.94 162.644 19.12 162.644 18.1V9.88H160.634V6.25H162.644V1.24H167.444V6.25H170.654V9.88H167.444V16.45C167.444 16.97 167.574 17.35 167.834 17.59C168.094 17.81 168.424 17.92 168.824 17.92C169.164 17.92 169.524 17.86 169.904 17.74C170.304 17.62 170.644 17.49 170.924 17.35L171.854 21.16Z" fill="#277CA5"/>
</svg>
