<svg width="252" height="54" viewBox="0 0 252 54" fill="none" xmlns="http://www.w3.org/2000/svg">
<path d="M85.13 13.7L90.14 29.24L95.09 13.7H100.28L92.54 35H87.71L79.91 13.7H85.13ZM107.915 35.3C106.575 35.3 105.385 35.09 104.345 34.67C103.305 34.23 102.415 33.64 101.675 32.9C100.955 32.16 100.405 31.31 100.025 30.35C99.6448 29.37 99.4548 28.35 99.4548 27.29C99.4548 25.77 99.7848 24.39 100.445 23.15C101.125 21.89 102.095 20.88 103.355 20.12C104.615 19.34 106.135 18.95 107.915 18.95C109.695 18.95 111.205 19.33 112.445 20.09C113.705 20.85 114.665 21.85 115.325 23.09C115.985 24.31 116.315 25.64 116.315 27.08C116.315 27.36 116.295 27.64 116.255 27.92C116.235 28.18 116.215 28.41 116.195 28.61H104.555C104.615 29.31 104.805 29.9 105.125 30.38C105.465 30.86 105.895 31.23 106.415 31.49C106.935 31.73 107.485 31.85 108.065 31.85C108.785 31.85 109.455 31.68 110.075 31.34C110.715 31 111.155 30.54 111.395 29.96L115.475 31.1C115.075 31.92 114.505 32.65 113.765 33.29C113.045 33.91 112.185 34.4 111.185 34.76C110.205 35.12 109.115 35.3 107.915 35.3ZM104.435 25.67H111.275C111.195 25.01 111.005 24.44 110.705 23.96C110.405 23.46 110.005 23.08 109.505 22.82C109.005 22.54 108.455 22.4 107.855 22.4C107.235 22.4 106.675 22.54 106.175 22.82C105.695 23.08 105.305 23.46 105.005 23.96C104.705 24.44 104.515 25.01 104.435 25.67ZM134.27 35H129.47V26.15C129.47 25.11 129.27 24.36 128.87 23.9C128.49 23.42 127.98 23.18 127.34 23.18C126.9 23.18 126.45 23.3 125.99 23.54C125.53 23.78 125.11 24.11 124.73 24.53C124.37 24.95 124.09 25.43 123.89 25.97V35H119.09V19.25H123.41V21.89C123.81 21.27 124.31 20.74 124.91 20.3C125.51 19.86 126.2 19.53 126.98 19.31C127.76 19.07 128.61 18.95 129.53 18.95C130.55 18.95 131.37 19.14 131.99 19.52C132.63 19.88 133.11 20.36 133.43 20.96C133.77 21.56 133.99 22.21 134.09 22.91C134.21 23.59 134.27 24.26 134.27 24.92V35ZM137.159 27.11C137.159 25.57 137.459 24.19 138.059 22.97C138.659 21.73 139.479 20.75 140.519 20.03C141.559 19.31 142.759 18.95 144.119 18.95C145.219 18.95 146.219 19.22 147.119 19.76C148.019 20.28 148.699 20.97 149.159 21.83V13.1H153.959V29.66C153.959 30.14 154.039 30.48 154.199 30.68C154.359 30.86 154.619 30.97 154.979 31.01V35C154.139 35.16 153.459 35.24 152.939 35.24C152.119 35.24 151.449 35.06 150.929 34.7C150.429 34.34 150.119 33.84 149.999 33.2L149.909 32.39C149.349 33.37 148.589 34.1 147.629 34.58C146.669 35.06 145.659 35.3 144.599 35.3C143.519 35.3 142.519 35.1 141.599 34.7C140.699 34.28 139.909 33.7 139.229 32.96C138.569 32.22 138.059 31.35 137.699 30.35C137.339 29.35 137.159 28.27 137.159 27.11ZM149.189 29.06V25.76C148.989 25.22 148.699 24.75 148.319 24.35C147.959 23.95 147.539 23.63 147.059 23.39C146.599 23.15 146.129 23.03 145.649 23.03C145.129 23.03 144.649 23.14 144.209 23.36C143.789 23.58 143.419 23.89 143.099 24.29C142.779 24.67 142.529 25.11 142.349 25.61C142.189 26.11 142.109 26.64 142.109 27.2C142.109 27.78 142.199 28.32 142.379 28.82C142.579 29.3 142.849 29.73 143.189 30.11C143.529 30.47 143.929 30.75 144.389 30.95C144.849 31.15 145.349 31.25 145.889 31.25C146.229 31.25 146.559 31.2 146.879 31.1C147.199 30.98 147.499 30.83 147.779 30.65C148.079 30.47 148.349 30.24 148.589 29.96C148.829 29.68 149.029 29.38 149.189 29.06ZM157.298 30.29C157.298 29.25 157.588 28.34 158.168 27.56C158.748 26.78 159.548 26.17 160.568 25.73C161.588 25.27 162.758 25.04 164.078 25.04C164.718 25.04 165.348 25.1 165.968 25.22C166.588 25.32 167.128 25.47 167.588 25.67V24.98C167.588 24.12 167.328 23.46 166.808 23C166.288 22.54 165.498 22.31 164.438 22.31C163.558 22.31 162.728 22.46 161.948 22.76C161.188 23.06 160.378 23.49 159.518 24.05L158.078 20.99C159.118 20.31 160.198 19.8 161.318 19.46C162.458 19.12 163.658 18.95 164.918 18.95C167.278 18.95 169.108 19.52 170.408 20.66C171.728 21.78 172.388 23.41 172.388 25.55V29.66C172.388 30.14 172.458 30.48 172.598 30.68C172.758 30.86 173.028 30.97 173.408 31.01V35C173.008 35.08 172.628 35.14 172.268 35.18C171.928 35.22 171.628 35.24 171.368 35.24C170.468 35.24 169.778 35.06 169.298 34.7C168.838 34.34 168.548 33.85 168.428 33.23L168.338 32.54C167.638 33.44 166.798 34.13 165.818 34.61C164.858 35.07 163.848 35.3 162.788 35.3C161.748 35.3 160.808 35.08 159.968 34.64C159.148 34.2 158.498 33.6 158.018 32.84C157.538 32.08 157.298 31.23 157.298 30.29ZM166.838 30.89C167.058 30.71 167.238 30.51 167.378 30.29C167.518 30.07 167.588 29.86 167.588 29.66V28.25C167.188 28.09 166.738 27.97 166.238 27.89C165.758 27.79 165.308 27.74 164.888 27.74C164.008 27.74 163.278 27.94 162.698 28.34C162.118 28.72 161.828 29.23 161.828 29.87C161.828 30.23 161.928 30.56 162.128 30.86C162.328 31.16 162.598 31.4 162.938 31.58C163.298 31.76 163.718 31.85 164.198 31.85C164.678 31.85 165.158 31.76 165.638 31.58C166.118 31.4 166.518 31.17 166.838 30.89ZM179.931 35L174.351 19.25H179.301L182.751 30.68L186.201 19.25H190.701L185.151 35H179.931ZM191.721 30.29C191.721 29.25 192.011 28.34 192.591 27.56C193.171 26.78 193.971 26.17 194.991 25.73C196.011 25.27 197.181 25.04 198.501 25.04C199.141 25.04 199.771 25.1 200.391 25.22C201.011 25.32 201.551 25.47 202.011 25.67V24.98C202.011 24.12 201.751 23.46 201.231 23C200.711 22.54 199.921 22.31 198.861 22.31C197.981 22.31 197.151 22.46 196.371 22.76C195.611 23.06 194.801 23.49 193.941 24.05L192.501 20.99C193.541 20.31 194.621 19.8 195.741 19.46C196.881 19.12 198.081 18.95 199.341 18.95C201.701 18.95 203.531 19.52 204.831 20.66C206.151 21.78 206.811 23.41 206.811 25.55V29.66C206.811 30.14 206.881 30.48 207.021 30.68C207.181 30.86 207.451 30.97 207.831 31.01V35C207.431 35.08 207.051 35.14 206.691 35.18C206.351 35.22 206.051 35.24 205.791 35.24C204.891 35.24 204.201 35.06 203.721 34.7C203.261 34.34 202.971 33.85 202.851 33.23L202.761 32.54C202.061 33.44 201.221 34.13 200.241 34.61C199.281 35.07 198.271 35.3 197.211 35.3C196.171 35.3 195.231 35.08 194.391 34.64C193.571 34.2 192.921 33.6 192.441 32.84C191.961 32.08 191.721 31.23 191.721 30.29ZM201.261 30.89C201.481 30.71 201.661 30.51 201.801 30.29C201.941 30.07 202.011 29.86 202.011 29.66V28.25C201.611 28.09 201.161 27.97 200.661 27.89C200.181 27.79 199.731 27.74 199.311 27.74C198.431 27.74 197.701 27.94 197.121 28.34C196.541 28.72 196.251 29.23 196.251 29.87C196.251 30.23 196.351 30.56 196.551 30.86C196.751 31.16 197.021 31.4 197.361 31.58C197.721 31.76 198.141 31.85 198.621 31.85C199.101 31.85 199.581 31.76 200.061 31.58C200.541 31.4 200.941 31.17 201.261 30.89ZM210.739 29.33V19.25H215.539V28.28C215.539 29.24 215.729 29.98 216.109 30.5C216.489 31 217.029 31.25 217.729 31.25C218.169 31.25 218.589 31.18 218.989 31.04C219.389 30.88 219.779 30.63 220.159 30.29C220.539 29.95 220.879 29.51 221.179 28.97V19.25H225.979V29.66C225.979 30.14 226.049 30.48 226.189 30.68C226.349 30.86 226.619 30.97 226.999 31.01V35C226.559 35.08 226.169 35.14 225.829 35.18C225.509 35.22 225.219 35.24 224.959 35.24C224.119 35.24 223.449 35.07 222.949 34.73C222.449 34.37 222.139 33.87 222.019 33.23L221.929 32.27C221.209 33.31 220.309 34.08 219.229 34.58C218.169 35.06 216.979 35.3 215.659 35.3C214.059 35.3 212.839 34.79 211.999 33.77C211.159 32.75 210.739 31.27 210.739 29.33ZM230.238 13.1H235.038V29.39C235.038 30.05 235.158 30.52 235.398 30.8C235.638 31.08 235.978 31.22 236.418 31.22C236.718 31.22 237.018 31.18 237.318 31.1C237.638 31 237.918 30.89 238.158 30.77L238.788 34.37C238.188 34.65 237.498 34.87 236.718 35.03C235.938 35.19 235.208 35.27 234.528 35.27C233.168 35.27 232.108 34.91 231.348 34.19C230.608 33.45 230.238 32.41 230.238 31.07V13.1ZM250.854 34.16C250.414 34.34 249.924 34.52 249.384 34.7C248.864 34.88 248.314 35.02 247.734 35.12C247.154 35.24 246.584 35.3 246.024 35.3C245.224 35.3 244.484 35.17 243.804 34.91C243.144 34.63 242.614 34.18 242.214 33.56C241.834 32.94 241.644 32.12 241.644 31.1V22.88H239.634V19.25H241.644V14.24H246.444V19.25H249.654V22.88H246.444V29.45C246.444 29.97 246.574 30.35 246.834 30.59C247.094 30.81 247.424 30.92 247.824 30.92C248.164 30.92 248.524 30.86 248.904 30.74C249.304 30.62 249.644 30.49 249.924 30.35L250.854 34.16Z" fill="#113547"/>
<path d="M27.2181 9.50329L37.9036 41.4814L49.3924 9.50329L39.8891 14.2549L46.2247 6.33553L59.9473 0L60.8727 15.7994L58.0965 3.76934L43.0581 53.8521H32.6848L16.1292 3.16776L15.5032 20.4264L14.6031 10.2471L13.6777 0L30.3858 6.33553L36.7214 14.2549L27.2181 9.50329Z" fill="#113547"/>
<path d="M17.3824 20.7329C-39.0111 75.9496 101.662 -23.0675 53.7991 47.7294" stroke="#FF9900" stroke-width="6.10549"/>
<path d="M31.5493 22.9676L35.8132 35.2329L28.4855 40.7859L22.9384 24.1279L31.5493 22.9676Z" fill="#113547"/>
</svg>
