<svg width="76" height="76" viewBox="0 0 76 76" fill="none" xmlns="http://www.w3.org/2000/svg">
<g filter="url(#filter0_d_1161_6624)">
<circle cx="38" cy="34" r="30" fill="#277CA5"/>
</g>
<path d="M46 27H30C28.9 27 28 27.9 28 29V47L32 43H46C47.1 43 48 42.1 48 41V29C48 27.9 47.1 27 46 27ZM46 41H31.17L30 42.17V29H46V41Z" fill="white"/>
<path d="M38 40L39.57 36.57L43 35L39.57 33.43L38 30L36.43 33.43L33 35L36.43 36.57L38 40Z" fill="white"/>
<defs>
<filter id="filter0_d_1161_6624" x="0" y="0" width="76" height="76" filterUnits="userSpaceOnUse" color-interpolation-filters="sRGB">
<feFlood flood-opacity="0" result="BackgroundImageFix"/>
<feColorMatrix in="SourceAlpha" type="matrix" values="0 0 0 0 0 0 0 0 0 0 0 0 0 0 0 0 0 0 127 0" result="hardAlpha"/>
<feOffset dy="4"/>
<feGaussianBlur stdDeviation="4"/>
<feComposite in2="hardAlpha" operator="out"/>
<feColorMatrix type="matrix" values="0 0 0 0 0.0784314 0 0 0 0 0.729412 0 0 0 0 0.623529 0 0 0 0.08 0"/>
<feBlend mode="normal" in2="BackgroundImageFix" result="effect1_dropShadow_1161_6624"/>
<feBlend mode="normal" in="SourceGraphic" in2="effect1_dropShadow_1161_6624" result="shape"/>
</filter>
</defs>
</svg>
