<svg width="28" height="28" viewBox="0 0 28 28" fill="none" xmlns="http://www.w3.org/2000/svg">
<path d="M27.5841 5.75988C26.6099 6.19155 25.5634 6.48322 24.4633 6.61505C25.5984 5.93581 26.4477 4.86676 26.8526 3.60738C25.7861 4.24087 24.6188 4.68678 23.4016 4.92572C22.583 4.05173 21.4988 3.47243 20.3173 3.27777C19.1358 3.08311 17.923 3.28397 16.8674 3.84918C15.8117 4.41438 14.9722 5.3123 14.4791 6.40354C13.986 7.49477 13.867 8.71826 14.1406 9.88405C11.9796 9.77555 9.86548 9.21386 7.93558 8.23544C6.00567 7.25702 4.30306 5.88374 2.93825 4.20472C2.47158 5.00972 2.20325 5.94305 2.20325 6.93705C2.20273 7.83188 2.42309 8.713 2.84478 9.50224C3.26646 10.2915 3.87644 10.9644 4.62058 11.4614C3.75757 11.4339 2.9136 11.2007 2.15892 10.7812V10.8512C2.15883 12.1062 2.59295 13.3227 3.38763 14.294C4.18231 15.2654 5.28858 15.932 6.51875 16.1806C5.71816 16.3972 4.87881 16.4291 4.06408 16.2739C4.41116 17.3538 5.08724 18.2981 5.99768 18.9746C6.90811 19.6512 8.00732 20.0261 9.14142 20.0469C7.21622 21.5582 4.83862 22.378 2.39108 22.3744C1.95753 22.3745 1.52434 22.3492 1.09375 22.2986C3.57814 23.8959 6.47015 24.7437 9.42375 24.7404C19.4221 24.7404 24.8879 16.4594 24.8879 9.27738C24.8879 9.04405 24.8821 8.80838 24.8716 8.57505C25.9348 7.80619 26.8525 6.85409 27.5818 5.76338L27.5841 5.75988Z" fill="#277CA5"/>
</svg>
